{"title":"Four Brothers 2005 720p BRRip x264 AC3 - ViZNU [P2PDL]","uid":7687754,"size":737992016,"categoryP":"video","categoryS":"hd___movies","magnet":"?xt=urn:btih:9d9c0ff89790203dfdd4406f4f8ff5adca827324&amp;dn=Four+Brothers+2005+720p+BRRip+x264+AC3+-+ViZNU+%5BP2PDL%5D&amp;tr=udp%3A%2F%2Ftracker.openbittorrent.com%3A80&amp;tr=udp%3A%2F%2Fopen.demonii.com%3A1337&amp;tr=udp%3A%2F%2Ftracker.coppersurfer.tk%3A6969&amp;tr=udp%3A%2F%2Fexodus.desync.com%3A6969","seeders":1,"leechers":0,"uploader":"ValidusVyto","files":-1,"time":1349010464,"description":"_________________________  Visit us at _________________________\n  &lt;a href=&quot;\nhttp://tinym.eu&quot; rel=&quot;nofollow&quot; target=&quot;_NEW&quot;&gt;\nhttp://tinym.eu&lt;/a&gt;  ____________________________ &lt;a href=&quot; http://p2pdl.com&quot; rel=&quot;nofollow&quot; target=&quot;_NEW&quot;&gt; http://p2pdl.com&lt;/a&gt;\n\n\n\nRelease Title: Four Brothers (2005)\n\n\t\t\t\t\t\nGenre: Action | Crime | Drama\nIMDb Rating: 6.8/10 &lt;a href=&quot;\nhttp://www.imdb.com/title/tt0430105/&quot; rel=&quot;nofollow&quot; target=&quot;_NEW&quot;&gt;\nhttp://www.imdb.com/title/tt0430105/&lt;/a&gt;\n\n\nPlot: Four brothers look to avenge their mother's death.  \n\n\nDirector:  John Singleton\n\n\nStars: Mark Wahlberg, Tyrese Gibson and Garrett Hedlund. \n\n\nRated: R for strong violence, pervasive language and some sexual content.\n\n\nGeneral\nFormat                         : Matroska\nFormat version                 : Version 2\nFile size                      : 691 MiB\nDuration                       : 1h 48mn\nOverall bit rate               : 888 Kbps\nMovie name                     : Four Brothers 2005 720p BRRip x264 AC3 - ViZNU [P2PDL]\nSource                         : 1080p.BluRay.DTS.x264.RiplleyHD(Thanks)\n\nVideo\nID                             : 1\nFormat                         : AVC\nFormat/Info                    : Advanced Video Codec\nCodec ID                       : V_MPEG4/ISO/AVC\nDuration                       : 1h 48mn\nBit rate                       : 695 Kbps\nWidth                          : 1 280 pixels\nHeight                         : 544 pixels\nDisplay aspect ratio           : 2.35:1\nFrame rate mode                : Constant\nFrame rate                     : 23.976 fps\nColor space                    : YUV\nChroma subsampling             : 4:2:0\nStream size                    : 527 MiB (76%)\nWriting library                : x264 core 125 r2208 d9d2288\nDefault                        : Yes\nForced                         : No\n\nAudio\nID                             : 2\nFormat                         : AC-3\nFormat/Info                    : Audio Coding 3\nCodec ID                       : A_AC3\nDuration                       : 1h 48mn\nBit rate mode                  : Constant\nBit rate                       : 192 Kbps\nChannel(s)                     : 2 channels\nChannel positions              : Front: L R\nSampling rate                  : 48.0 KHz\nStream size                    : 149 MiB (22%)\nLanguage                       : English\nDefault                        : Yes\nForced                         : No\n\nSubtitle: UTF-8 English (Subtitle 1) [Default]\n\n\n\nScreens:\n\n &lt;a href=&quot;\nhttp://www.shotpix.com/images/10613021618122910952.png&quot; rel=&quot;nofollow&quot; target=&quot;_NEW&quot;&gt;\nhttp://www.shotpix.com/images/10613021618122910952.png&lt;/a&gt; &lt;a href=&quot;\nhttp://www.shotpix.com/images/51819060666794004563.png&quot; rel=&quot;nofollow&quot; target=&quot;_NEW&quot;&gt;\nhttp://www.shotpix.com/images/51819060666794004563.png&lt;/a&gt; &lt;a href=&quot;\nhttp://www.shotpix.com/images/66563282564537915862.png&quot; rel=&quot;nofollow&quot; target=&quot;_NEW&quot;&gt;\nhttp://www.shotpix.com/images/66563282564537915862.png&lt;/a&gt; &lt;a href=&quot;\nhttp://www.shotpix.com/images/31377734160365819027.png&quot; rel=&quot;nofollow&quot; target=&quot;_NEW&quot;&gt;\nhttp://www.shotpix.com/images/31377734160365819027.png&lt;/a&gt; &lt;a href=&quot;\nhttp://www.shotpix.com/images/11176228516977452108.png&quot; rel=&quot;nofollow&quot; target=&quot;_NEW&quot;&gt;\nhttp://www.shotpix.com/images/11176228516977452108.png&lt;/a&gt; &lt;a href=&quot;\nhttp://www.shotpix.com/images/81374564032170056322.png&quot; rel=&quot;nofollow&quot; target=&quot;_NEW&quot;&gt;\nhttp://www.shotpix.com/images/81374564032170056322.png&lt;/a&gt;\n\n\n------------------------------------------------------------------------\n\n\nRecommend to you to use VLC player. Install shark007 codecs in case of any kind of problem in playback (For non-VLC\nMedia Player users). Alternatively, install Core AVC codecs, the fastest decoder that there is coupled with Community\nCenter Codec Pack and play on Windows Media Player ClassicCheck sample to be sure. Enjoy!\n\n\nGreets to: srkfan, Vitamin_X, MgB, staff members at ExtraTorrent, TPB,KAT, 1337x, PublicHD, Ahashare,\nSilverTorrent, TorrentMafia, P2PDL, and all others.\n\n\nEncoder Notes: Looking For Early Access To Anything You Can Provide DVDScr, R5, DVDRips, BluRay, Direct Audio, Early Music\nReleases, Seedboxes, Links, Dedicated Servers anything u can provide, Advance / Promo CDs/DVDs. If You Got anything to\noffer contact me at &quot;&lt;a class=&quot;__cf_email__&quot; href=&quot;/cdn-cgi/l/email-protection&quot; data-cfemail=&quot;a2c1cdccd6c3c1d6e2d6cbccdbcf8cc7d7&quot;&gt;[email&amp;#160;protected]&lt;/a&gt;&lt;script cf-hash='f9e31' type=&quot;text/javascript&quot;&gt;\n/* &lt;![CDATA[ */!function(){try{var t=&quot;currentScript&quot;in document?document.currentScript:function(){for(var t=document.getElementsByTagName(&quot;script&quot;),e=t.length;e--;)if(t[e].getAttribute(&quot;cf-hash&quot;))return t[e]}();if(t&amp;&amp;t.previousSibling){var e,r,n,i,c=t.previousSibling,a=c.getAttribute(&quot;data-cfemail&quot;);if(a){for(e=&quot;&quot;,r=parseInt(a.substr(0,2),16),n=2;a.length-n;n+=2)i=parseInt(a.substr(n,2),16)^r,e+=String.fromCharCode(i);e=document.createTextNode(e),c.parentNode.replaceChild(e,c)}}}catch(u){}}();/* ]]&gt; */&lt;/script&gt;&quot;\n\n\nFacebook Fan Page: www . facebook . com / p2pdl\n","torrent":{"xt":"urn:btih:9d9c0ff89790203dfdd4406f4f8ff5adca827324","amp;dn":"Four+Brothers+2005+720p+BRRip+x264+AC3+-+ViZNU+%5BP2PDL%5D","amp;tr":["udp%3A%2F%2Ftracker.openbittorrent.com%3A80","udp%3A%2F%2Fopen.demonii.com%3A1337","udp%3A%2F%2Ftracker.coppersurfer.tk%3A6969","udp%3A%2F%2Fexodus.desync.com%3A6969"],"infoHash":"9d9c0ff89790203dfdd4406f4f8ff5adca827324","infoHashBuffer":{"type":"Buffer","data":[157,156,15,248,151,144,32,61,253,212,64,111,79,143,245,173,202,130,115,36]},"announce":[],"urlList":[]}}